<svg width="744" height="160" viewBox="0 0 744 160" fill="none" xmlns="http://www.w3.org/2000/svg">
<circle cx="80" cy="80" r="71" fill="#D35400" stroke="#FFAF40" stroke-width="18"/>
<path d="M209.273 127.864C202.121 127.864 195.97 126.348 190.818 123.318C185.697 120.258 181.758 116.015 179 110.591C176.273 105.167 174.909 98.9242 174.909 91.8636C174.909 84.7121 176.288 78.4394 179.045 73.0455C181.833 67.6212 185.788 63.3939 190.909 60.3636C196.03 57.303 202.121 55.7727 209.182 55.7727C215.273 55.7727 220.606 56.8788 225.182 59.0909C229.758 61.303 233.379 64.4091 236.045 68.4091C238.712 72.4091 240.182 77.1061 240.455 82.5H222.182C221.667 79.0151 220.303 76.2121 218.091 74.0909C215.909 71.9394 213.045 70.8636 209.5 70.8636C206.5 70.8636 203.879 71.6818 201.636 73.3182C199.424 74.9242 197.697 77.2727 196.455 80.3636C195.212 83.4545 194.591 87.197 194.591 91.5909C194.591 96.0455 195.197 99.8333 196.409 102.955C197.652 106.076 199.394 108.455 201.636 110.091C203.879 111.727 206.5 112.545 209.5 112.545C211.712 112.545 213.697 112.091 215.455 111.182C217.242 110.273 218.712 108.955 219.864 107.227C221.045 105.47 221.818 103.364 222.182 100.909H240.455C240.152 106.242 238.697 110.939 236.091 115C233.515 119.03 229.955 122.182 225.409 124.455C220.864 126.727 215.485 127.864 209.273 127.864ZM284.398 127.864C277.337 127.864 271.231 126.364 266.08 123.364C260.958 120.333 257.004 116.121 254.216 110.727C251.428 105.303 250.034 99.0152 250.034 91.8636C250.034 84.6515 251.428 78.3485 254.216 72.9545C257.004 67.5303 260.958 63.3182 266.08 60.3182C271.231 57.2879 277.337 55.7727 284.398 55.7727C291.458 55.7727 297.549 57.2879 302.67 60.3182C307.822 63.3182 311.792 67.5303 314.58 72.9545C317.367 78.3485 318.761 84.6515 318.761 91.8636C318.761 99.0152 317.367 105.303 314.58 110.727C311.792 116.121 307.822 120.333 302.67 123.364C297.549 126.364 291.458 127.864 284.398 127.864ZM284.489 112.864C287.701 112.864 290.383 111.955 292.534 110.136C294.686 108.288 296.307 105.773 297.398 102.591C298.519 99.4091 299.08 95.7879 299.08 91.7273C299.08 87.6667 298.519 84.0455 297.398 80.8636C296.307 77.6818 294.686 75.1667 292.534 73.3182C290.383 71.4697 287.701 70.5455 284.489 70.5455C281.246 70.5455 278.519 71.4697 276.307 73.3182C274.125 75.1667 272.473 77.6818 271.352 80.8636C270.261 84.0455 269.716 87.6667 269.716 91.7273C269.716 95.7879 270.261 99.4091 271.352 102.591C272.473 105.773 274.125 108.288 276.307 110.136C278.519 111.955 281.246 112.864 284.489 112.864ZM331.352 126.5V56.6818H350.716V126.5H331.352ZM341.08 47.6818C338.201 47.6818 335.731 46.7273 333.67 44.8182C331.64 42.8788 330.625 40.5606 330.625 37.8636C330.625 35.197 331.64 32.9091 333.67 31C335.731 29.0606 338.201 28.0909 341.08 28.0909C343.958 28.0909 346.413 29.0606 348.443 31C350.504 32.9091 351.534 35.197 351.534 37.8636C351.534 40.5606 350.504 42.8788 348.443 44.8182C346.413 46.7273 343.958 47.6818 341.08 47.6818ZM385.591 86.1364V126.5H366.227V56.6818H384.682V69H385.5C387.045 64.9394 389.636 61.7273 393.273 59.3636C396.909 56.9697 401.318 55.7727 406.5 55.7727C411.348 55.7727 415.576 56.8333 419.182 58.9545C422.788 61.0758 425.591 64.1061 427.591 68.0455C429.591 71.9545 430.591 76.6212 430.591 82.0455V126.5H411.227V85.5C411.258 81.2273 410.167 77.8939 407.955 75.5C405.742 73.0758 402.697 71.8636 398.818 71.8636C396.212 71.8636 393.909 72.4242 391.909 73.5455C389.939 74.6667 388.394 76.303 387.273 78.4545C386.182 80.5758 385.621 83.1364 385.591 86.1364Z" fill="#FFAF40"/>
<path d="M446.216 126.5V33.4091H465.58V68.4091H466.17C467.019 66.5303 468.246 64.6212 469.852 62.6818C471.489 60.7121 473.61 59.0758 476.216 57.7727C478.852 56.4394 482.125 55.7727 486.034 55.7727C491.125 55.7727 495.822 57.1061 500.125 59.7727C504.428 62.4091 507.867 66.3939 510.443 71.7273C513.019 77.0303 514.307 83.6818 514.307 91.6818C514.307 99.4697 513.049 106.045 510.534 111.409C508.049 116.742 504.655 120.788 500.352 123.545C496.08 126.273 491.292 127.636 485.989 127.636C482.231 127.636 479.034 127.015 476.398 125.773C473.792 124.53 471.655 122.97 469.989 121.091C468.322 119.182 467.049 117.258 466.17 115.318H465.307V126.5H446.216ZM465.17 91.5909C465.17 95.7424 465.746 99.3636 466.898 102.455C468.049 105.545 469.716 107.955 471.898 109.682C474.08 111.379 476.731 112.227 479.852 112.227C483.004 112.227 485.67 111.364 487.852 109.636C490.034 107.879 491.686 105.455 492.807 102.364C493.958 99.2424 494.534 95.6515 494.534 91.5909C494.534 87.5606 493.973 84.0151 492.852 80.9545C491.731 77.8939 490.08 75.5 487.898 73.7727C485.716 72.0455 483.034 71.1818 479.852 71.1818C476.701 71.1818 474.034 72.0151 471.852 73.6818C469.701 75.3485 468.049 77.7121 466.898 80.7727C465.746 83.8333 465.17 87.4394 465.17 91.5909ZM547.136 127.818C542.682 127.818 538.712 127.045 535.227 125.5C531.742 123.924 528.985 121.606 526.955 118.545C524.955 115.455 523.955 111.606 523.955 107C523.955 103.121 524.667 99.8636 526.091 97.2273C527.515 94.5909 529.455 92.4697 531.909 90.8636C534.364 89.2576 537.152 88.0455 540.273 87.2273C543.424 86.4091 546.727 85.8333 550.182 85.5C554.242 85.0758 557.515 84.6818 560 84.3182C562.485 83.9242 564.288 83.3485 565.409 82.5909C566.53 81.8333 567.091 80.7121 567.091 79.2273V78.9545C567.091 76.0758 566.182 73.8485 564.364 72.2727C562.576 70.697 560.03 69.9091 556.727 69.9091C553.242 69.9091 550.47 70.6818 548.409 72.2273C546.348 73.7424 544.985 75.6515 544.318 77.9545L526.409 76.5C527.318 72.2576 529.106 68.5909 531.773 65.5C534.439 62.3788 537.879 59.9848 542.091 58.3182C546.333 56.6212 551.242 55.7727 556.818 55.7727C560.697 55.7727 564.409 56.2273 567.955 57.1364C571.53 58.0455 574.697 59.4545 577.455 61.3636C580.242 63.2727 582.439 65.7273 584.045 68.7273C585.652 71.697 586.455 75.2576 586.455 79.4091V126.5H568.091V116.818H567.545C566.424 119 564.924 120.924 563.045 122.591C561.167 124.227 558.909 125.515 556.273 126.455C553.636 127.364 550.591 127.818 547.136 127.818ZM552.682 114.455C555.53 114.455 558.045 113.894 560.227 112.773C562.409 111.621 564.121 110.076 565.364 108.136C566.606 106.197 567.227 104 567.227 101.545V94.1364C566.621 94.5303 565.788 94.8939 564.727 95.2273C563.697 95.5303 562.53 95.8182 561.227 96.0909C559.924 96.3333 558.621 96.5606 557.318 96.7727C556.015 96.9545 554.833 97.1212 553.773 97.2727C551.5 97.6061 549.515 98.1364 547.818 98.8636C546.121 99.5909 544.803 100.576 543.864 101.818C542.924 103.03 542.455 104.545 542.455 106.364C542.455 109 543.409 111.015 545.318 112.409C547.258 113.773 549.712 114.455 552.682 114.455ZM633.023 127.864C625.871 127.864 619.72 126.348 614.568 123.318C609.447 120.258 605.508 116.015 602.75 110.591C600.023 105.167 598.659 98.9242 598.659 91.8636C598.659 84.7121 600.038 78.4394 602.795 73.0455C605.583 67.6212 609.538 63.3939 614.659 60.3636C619.78 57.303 625.871 55.7727 632.932 55.7727C639.023 55.7727 644.356 56.8788 648.932 59.0909C653.508 61.303 657.129 64.4091 659.795 68.4091C662.462 72.4091 663.932 77.1061 664.205 82.5H645.932C645.417 79.0151 644.053 76.2121 641.841 74.0909C639.659 71.9394 636.795 70.8636 633.25 70.8636C630.25 70.8636 627.629 71.6818 625.386 73.3182C623.174 74.9242 621.447 77.2727 620.205 80.3636C618.962 83.4545 618.341 87.197 618.341 91.5909C618.341 96.0455 618.947 99.8333 620.159 102.955C621.402 106.076 623.144 108.455 625.386 110.091C627.629 111.727 630.25 112.545 633.25 112.545C635.462 112.545 637.447 112.091 639.205 111.182C640.992 110.273 642.462 108.955 643.614 107.227C644.795 105.47 645.568 103.364 645.932 100.909H664.205C663.902 106.242 662.447 110.939 659.841 115C657.265 119.03 653.705 122.182 649.159 124.455C644.614 126.727 639.235 127.864 633.023 127.864ZM694.148 106.409L694.193 83.1818H697.011L719.375 56.6818H741.602L711.557 91.7727H706.966L694.148 106.409ZM676.602 126.5V33.4091H695.966V126.5H676.602ZM720.239 126.5L699.693 96.0909L712.602 82.4091L742.92 126.5H720.239Z" fill="#D35400"/>
</svg>
